<?xml version="1.0" encoding="utf-8"?>
<!-- Generator: Adobe Illustrator 15.1.0, SVG Export Plug-In . SVG Version: 6.00 Build 0)  -->
<!DOCTYPE svg PUBLIC "-//W3C//DTD SVG 1.1//EN" "http://www.w3.org/Graphics/SVG/1.1/DTD/svg11.dtd">
<svg version="1.1" id="Layer_1" xmlns="http://www.w3.org/2000/svg" xmlns:xlink="http://www.w3.org/1999/xlink" x="0px" y="0px"
	 width="128px" height="38px" viewBox="0 0 288.86 82.478" enable-background="new 0 0 288.86 82.478" xml:space="preserve">
<g>
	<path fill="#37A2DB" d="M0,30.586c0-4.689,1.659-8.692,4.977-12.012c3.32-3.32,7.326-4.979,12.014-4.979
		c4.691,0,8.695,1.658,12.013,4.979c3.32,3.319,4.979,7.322,4.979,12.012c0,4.691-1.659,8.695-4.979,12.014
		c-3.318,3.32-7.322,4.979-12.013,4.979c-3.875,0-7.271-1.12-10.194-3.363v16.957H0V30.586z M16.991,40.781
		c2.809,0,5.21-0.996,7.205-2.991c1.993-1.993,2.99-4.394,2.99-7.204c0-2.809-0.997-5.21-2.99-7.203
		c-1.995-1.994-4.396-2.991-7.205-2.991c-2.81,0-5.21,0.997-7.205,2.991c-1.994,1.993-2.99,4.395-2.99,7.203
		c0,2.811,0.996,5.211,2.99,7.204C11.781,39.785,14.182,40.781,16.991,40.781z"/>
	<path fill="#37A2DB" d="M66.387,18.574c3.319,3.319,4.978,7.322,4.978,12.012c0,4.691-1.659,8.695-4.978,12.014
		c-3.319,3.32-7.324,4.979-12.013,4.979S45.679,45.92,42.359,42.6c-3.319-3.318-4.977-7.322-4.977-12.014
		c0-4.689,1.658-8.692,4.977-12.012c3.319-3.32,7.325-4.979,12.014-4.979S63.068,15.254,66.387,18.574z M54.374,20.392
		c-2.81,0-5.21,0.997-7.204,2.991c-1.994,1.993-2.991,4.395-2.991,7.203c0,2.811,0.997,5.211,2.991,7.204
		c1.993,1.995,4.394,2.991,7.204,2.991c2.809,0,5.21-0.996,7.205-2.991c1.993-1.993,2.99-4.394,2.99-7.204
		c0-2.809-0.997-5.21-2.99-7.203C59.584,21.389,57.182,20.392,54.374,20.392z"/>
	<path fill="#37A2DB" d="M81.561,47.578h-6.798V0h6.798V47.578z"/>
	<path fill="#37A2DB" d="M112.146,44.215c-2.923,2.243-6.321,3.363-10.195,3.363c-4.69,0-8.694-1.658-12.013-4.979
		c-3.319-3.318-4.979-7.322-4.979-12.014c0-4.689,1.661-8.692,4.979-12.012c3.318-3.32,7.322-4.979,12.013-4.979
		c4.691,0,8.693,1.658,12.014,4.979c3.317,3.319,4.979,7.322,4.979,12.012v16.992h-6.797V44.215z M101.95,20.392
		c-2.809,0-5.211,0.997-7.205,2.991c-1.992,1.993-2.987,4.395-2.987,7.203c0,2.811,0.995,5.211,2.987,7.204
		c1.994,1.995,4.396,2.991,7.205,2.991c2.809,0,5.21-0.996,7.206-2.991c1.993-1.993,2.99-4.394,2.99-7.204
		c0-2.809-0.997-5.21-2.99-7.203C107.16,21.389,104.759,20.392,101.95,20.392z"/>
	<path fill="#37A2DB" d="M129.138,30.586v16.992h-6.798V30.586c0-4.689,1.661-8.692,4.98-12.012
		c3.317-3.32,7.322-4.979,12.012-4.979v6.796c-2.81,0-5.211,0.997-7.205,2.991C130.134,25.376,129.138,27.777,129.138,30.586z"/>
	<path fill="#FFFFFF" d="M169.375,33.984h7.035c-0.636,3.264-2.188,6.129-4.657,8.598c-3.33,3.33-7.34,4.996-12.029,4.996
		c-4.69,0-8.694-1.658-12.015-4.979c-3.319-3.318-4.979-7.322-4.979-12.014c0-4.689,1.659-8.692,4.979-12.012
		c3.32-3.32,7.324-4.979,12.015-4.979c4.689,0,8.699,1.654,12.029,4.961c2.47,2.491,4.021,5.37,4.657,8.632h-7.035
		c-0.499-1.405-1.315-2.673-2.447-3.806c-1.994-1.994-4.396-2.991-7.204-2.991c-2.811,0-5.213,0.997-7.205,2.991
		c-1.994,1.993-2.991,4.395-2.991,7.203c0,2.811,0.997,5.211,2.991,7.204c1.992,1.995,4.395,2.991,7.205,2.991
		c2.809,0,5.21-0.996,7.204-2.991C168.06,36.658,168.876,35.39,169.375,33.984z"/>
	<path fill="#FFFFFF" d="M207.301,44.215c-2.923,2.243-6.321,3.363-10.196,3.363c-4.689,0-8.694-1.658-12.013-4.979
		c-3.319-3.318-4.979-7.322-4.979-12.014c0-4.689,1.659-8.692,4.979-12.012c3.318-3.32,7.323-4.979,12.013-4.979
		s8.695,1.658,12.013,4.979c3.319,3.319,4.979,7.322,4.979,12.012v16.992h-6.795V44.215z M197.104,20.392
		c-2.811,0-5.212,0.997-7.205,2.991c-1.993,1.993-2.991,4.395-2.991,7.203c0,2.811,0.998,5.211,2.991,7.204
		c1.993,1.995,4.395,2.991,7.205,2.991c2.809,0,5.211-0.996,7.204-2.991c1.994-1.993,2.992-4.394,2.992-7.204
		c0-2.809-0.998-5.21-2.992-7.203C202.315,21.389,199.913,20.392,197.104,20.392z"/>
	<path fill="#FFFFFF" d="M217.495,30.586c0-4.689,1.659-8.692,4.979-12.012c3.32-3.32,7.322-4.979,12.014-4.979
		c4.689,0,8.693,1.658,12.013,4.979c3.319,3.319,4.979,7.322,4.979,12.012c0,4.691-1.66,8.695-4.979,12.014
		c-3.319,3.32-7.323,4.979-12.013,4.979c-3.875,0-7.273-1.12-10.196-3.363v16.957h-6.796V30.586z M234.487,40.781
		c2.809,0,5.211-0.996,7.204-2.991c1.994-1.993,2.99-4.394,2.99-7.204c0-2.809-0.996-5.21-2.99-7.203
		c-1.993-1.994-4.396-2.991-7.204-2.991c-2.81,0-5.213,0.997-7.204,2.991c-1.994,1.993-2.992,4.395-2.992,7.203
		c0,2.811,0.998,5.211,2.992,7.204C229.274,39.785,231.678,40.781,234.487,40.781z"/>
	<path fill="#FFFFFF" d="M279.448,37.383h8.052c-0.839,1.904-2.04,3.636-3.602,5.199c-3.329,3.33-7.341,4.996-12.03,4.996
		c-4.688,0-8.693-1.658-12.014-4.979c-3.318-3.318-4.977-7.322-4.977-12.014c0-4.689,1.658-8.692,4.977-12.012
		c3.32-3.32,7.326-4.979,12.014-4.979c4.689,0,8.695,1.658,12.013,4.979c3.319,3.319,4.979,7.322,4.979,12.012
		c0,1.18-0.102,2.312-0.307,3.398h-26.337c0.498,1.405,1.313,2.674,2.447,3.806c1.993,1.995,4.395,2.991,7.204,2.991
		c2.809,0,5.213-0.996,7.205-2.991C279.209,37.654,279.333,37.52,279.448,37.383z M281.521,27.188
		c-0.501-1.405-1.316-2.673-2.448-3.806c-1.992-1.994-4.396-2.991-7.205-2.991c-2.81,0-5.211,0.997-7.204,2.991
		c-1.134,1.133-1.949,2.4-2.447,3.806H281.521z"/>
	<g>
		<path fill="#FFFFFF" d="M192.779,76.979c-0.56,0.27-1.8,0.682-3.381,0.682c-3.551,0-5.862-2.407-5.862-6.007
			c0-3.625,2.481-6.275,6.324-6.275c1.265,0,2.382,0.315,2.968,0.633l-0.487,1.628c-0.511-0.267-1.313-0.558-2.48-0.558
			c-2.699,0-4.158,2.019-4.158,4.45c0,2.724,1.751,4.401,4.086,4.401c1.215,0,2.019-0.291,2.626-0.559L192.779,76.979z"/>
		<path fill="#FFFFFF" d="M205.796,71.412c0,4.354-3.04,6.249-5.862,6.249c-3.16,0-5.643-2.335-5.643-6.056
			c0-3.914,2.602-6.227,5.837-6.227C203.509,65.379,205.796,67.836,205.796,71.412z M196.48,71.532c0,2.578,1.46,4.524,3.552,4.524
			c2.042,0,3.574-1.922,3.574-4.572c0-1.994-0.996-4.5-3.527-4.5C197.575,66.984,196.48,69.318,196.48,71.532z"/>
		<path fill="#FFFFFF" d="M208.499,68.808c0-1.238-0.023-2.213-0.097-3.185h1.897l0.121,1.946h0.049
			c0.584-1.097,1.945-2.19,3.892-2.19c1.63,0,4.159,0.974,4.159,5.011v7.005h-2.141v-6.787c0-1.896-0.706-3.477-2.725-3.477
			c-1.386,0-2.479,0.997-2.869,2.188c-0.099,0.268-0.147,0.633-0.147,0.998v7.078h-2.14V68.808z"/>
		<path fill="#FFFFFF" d="M221.71,75.23c0.656,0.389,1.775,0.826,2.847,0.826c1.531,0,2.261-0.754,2.261-1.75
			c0-1.021-0.608-1.557-2.164-2.142c-2.142-0.779-3.138-1.921-3.138-3.331c0-1.897,1.557-3.455,4.062-3.455
			c1.192,0,2.238,0.315,2.87,0.73l-0.511,1.557c-0.462-0.293-1.313-0.705-2.408-0.705c-1.265,0-1.945,0.73-1.945,1.604
			c0,0.974,0.681,1.409,2.214,2.019c2.019,0.755,3.087,1.775,3.087,3.526c0,2.091-1.629,3.551-4.376,3.551
			c-1.29,0-2.48-0.34-3.309-0.827L221.71,75.23z"/>
		<path fill="#FFFFFF" d="M241.486,74.159c0,1.24,0.025,2.312,0.098,3.235h-1.896l-0.123-1.922h-0.049
			c-0.535,0.948-1.8,2.188-3.891,2.188c-1.85,0-4.063-1.045-4.063-5.155v-6.883h2.141v6.494c0,2.236,0.705,3.77,2.627,3.77
			c1.435,0,2.432-0.998,2.82-1.97c0.122-0.293,0.195-0.681,0.195-1.096v-7.198h2.14V74.159z"/>
		<path fill="#FFFFFF" d="M245.044,60.127h2.14v17.268h-2.14V60.127z"/>
		<path fill="#FFFFFF" d="M253.362,62.801v2.822h3.064v1.629h-3.064V73.6c0,1.459,0.415,2.287,1.606,2.287
			c0.583,0,0.923-0.049,1.239-0.146l0.097,1.628c-0.413,0.146-1.069,0.292-1.896,0.292c-0.997,0-1.799-0.34-2.31-0.899
			c-0.584-0.656-0.827-1.703-0.827-3.089v-6.421h-1.824v-1.629h1.824v-2.189L253.362,62.801z"/>
		<path fill="#FFFFFF" d="M261.223,62.314c0,0.73-0.511,1.314-1.362,1.314c-0.778,0-1.289-0.584-1.289-1.314
			c0-0.729,0.534-1.338,1.339-1.338C260.688,60.977,261.223,61.561,261.223,62.314z M258.839,77.395V65.623h2.14v11.771H258.839z"/>
		<path fill="#FFFFFF" d="M264.531,68.808c0-1.238-0.023-2.213-0.097-3.185h1.896l0.122,1.946h0.05
			c0.584-1.097,1.945-2.19,3.892-2.19c1.628,0,4.158,0.974,4.158,5.011v7.005h-2.141v-6.787c0-1.896-0.705-3.477-2.724-3.477
			c-1.386,0-2.48,0.997-2.87,2.188c-0.098,0.268-0.146,0.633-0.146,0.998v7.078h-2.141V68.808z"/>
		<path fill="#FFFFFF" d="M288.104,75.666c0,2.725-0.561,4.355-1.679,5.401c-1.168,1.046-2.822,1.41-4.306,1.41
			c-1.41,0-2.966-0.342-3.916-0.974l0.535-1.653c0.778,0.511,1.995,0.949,3.453,0.949c2.189,0,3.795-1.144,3.795-4.135v-1.29h-0.049
			c-0.633,1.096-1.921,1.971-3.746,1.971c-2.917,0-5.01-2.48-5.01-5.74c0-3.988,2.602-6.227,5.326-6.227
			c2.044,0,3.139,1.047,3.674,2.02h0.049l0.072-1.775h1.897c-0.073,0.826-0.097,1.799-0.097,3.211V75.666z M285.963,70.268
			c0-0.363-0.024-0.682-0.121-0.949c-0.389-1.264-1.411-2.285-2.991-2.285c-2.044,0-3.502,1.728-3.502,4.451
			c0,2.312,1.191,4.23,3.477,4.23c1.339,0,2.529-0.826,2.968-2.188c0.121-0.364,0.17-0.777,0.17-1.144V70.268z"/>
	</g>
</g>
</svg>
